<svg xmlns="http://www.w3.org/2000/svg" xmlns:xlink="http://www.w3.org/1999/xlink" width="23" height="16" viewBox="0 0 23 16">
  <metadata><?xpacket begin="﻿" id="W5M0MpCehiHzreSzNTczkc9d"?>
<x:xmpmeta xmlns:x="adobe:ns:meta/" x:xmptk="Adobe XMP Core 5.6-c138 79.159824, 2016/09/14-01:09:01        ">
   <rdf:RDF xmlns:rdf="http://www.w3.org/1999/02/22-rdf-syntax-ns#">
      <rdf:Description rdf:about=""/>
   </rdf:RDF>
</x:xmpmeta>                       
<?xpacket end="w"?></metadata>
<defs>
    <style>
      .cls-1 {
        fill: #222;
        fill-rule: evenodd;
        filter: url(#filter);
      }
    </style>
    <filter id="filter" x="270" y="1317" width="23" height="16" filterUnits="userSpaceOnUse">
      <feFlood result="flood" flood-color="#fff"/>
      <feComposite result="composite" operator="in" in2="SourceGraphic"/>
      <feBlend result="blend" in2="SourceGraphic"/>
    </filter>
  </defs>
  <path id="youtube" class="cls-1" d="M281.505,1317H281.5s-4.828,0-8.047.23a3.316,3.316,0,0,0-2.3.96,4.886,4.886,0,0,0-.914,2.26,34,34,0,0,0-.23,3.68v1.73a34,34,0,0,0,.23,3.68,4.886,4.886,0,0,0,.914,2.26,3.871,3.871,0,0,0,2.536.97c1.84,0.18,7.82.23,7.82,0.23h0s4.833-.01,8.051-0.24a3.27,3.27,0,0,0,2.305-.96,4.886,4.886,0,0,0,.914-2.26,34,34,0,0,0,.23-3.68v-1.73a34,34,0,0,0-.23-3.68,4.886,4.886,0,0,0-.914-2.26,3.317,3.317,0,0,0-2.305-.96c-3.218-.23-8.046-0.23-8.046-0.23m-2.347,10.97,6.17-3.2-6.17-3.21v6.41Z" transform="translate(-270 -1317)"/>
</svg>

